HIERARCHY
ROOT Hips
{
    OFFSET   0.000000   0.000000   0.000000
    CHANNELS 6 Xposition Yposition Zposition Zrotation Xrotation Yrotation
    JOINT Chest
    {
        OFFSET   0.000000   8.007230   0.000000
        CHANNELS 3 Zrotation Xrotation Yrotation
        JOINT Chest2
        {
            OFFSET   0.000000  22.077100   0.000000
            CHANNELS 3 Zrotation Xrotation Yrotation
            JOINT Neck
            {
                OFFSET   0.000000  23.254700   0.000000
                CHANNELS 3 Zrotation Xrotation Yrotation
                JOINT Head
                {
                    OFFSET   0.000010  14.370000   1.956610
                    CHANNELS 3 Zrotation Xrotation Yrotation
                    End Site
                    {
                        OFFSET   0.000000  19.566000   0.000000
                    }
                }
            }
            JOINT LeftCollar
            {
                OFFSET   3.911900  19.017000  -0.467063
                CHANNELS 3 Zrotation Xrotation Yrotation
                JOINT LeftShoulder
                {
                    OFFSET  10.383700   0.000000   0.000000
                    CHANNELS 3 Zrotation Xrotation Yrotation
                    JOINT LeftElbow
                    {
                        OFFSET  26.662100   0.001671   0.000522
                        CHANNELS 3 Zrotation Xrotation Yrotation
                        JOINT LeftWrist
                        {
                            OFFSET  28.869000   0.000037  -0.000114
                            CHANNELS 3 Zrotation Xrotation Yrotation
                            JOINT LeftFinger0
                            {
                                OFFSET   2.044650  -2.323450   3.252850
                                CHANNELS 3 Zrotation Xrotation Yrotation
                                JOINT LeftFinger01
                                {
                                    OFFSET   3.088140   0.000000   0.000000
                                    CHANNELS 3 Zrotation Xrotation Yrotation
                                    JOINT LeftFinger02
                                    {
                                        OFFSET   2.639460   0.000000   0.000000
                                        CHANNELS 3 Zrotation Xrotation Yrotation
                                        End Site
                                        {
                                            OFFSET   2.582190   0.000000   0.000000
                                        }
                                    }
                                }
                            }
                            JOINT LeftFinger1
                            {
                                OFFSET   8.364480   0.000000   3.252850
                                CHANNELS 3 Zrotation Xrotation Yrotation
                                JOINT LeftFinger11
                                {
                                    OFFSET   4.646930   0.000000   0.000000
                                    CHANNELS 3 Zrotation Xrotation Yrotation
                                    JOINT LeftFinger12
                                    {
                                        OFFSET   2.323470   0.000000   0.000000
                                        CHANNELS 3 Zrotation Xrotation Yrotation
                                        End Site
                                        {
                                            OFFSET   2.273050   0.000000   0.000000
                                        }
                                    }
                                }
                            }
                            JOINT LeftFinger2
                            {
                                OFFSET   8.364490   0.000016   1.078090
                                CHANNELS 3 Zrotation Xrotation Yrotation
                                JOINT LeftFinger21
                                {
                                    OFFSET   5.111620   0.000000   0.000000
                                    CHANNELS 3 Zrotation Xrotation Yrotation
                                    JOINT LeftFinger22
                                    {
                                        OFFSET   2.788150   0.000013   0.000000
                                        CHANNELS 3 Zrotation Xrotation Yrotation
                                        End Site
                                        {
                                            OFFSET   2.727660   0.000000   0.000000
                                        }
                                    }
                                }
                            }
                            JOINT LeftFinger3
                            {
                                OFFSET   7.899780   0.000016  -1.078090
                                CHANNELS 3 Zrotation Xrotation Yrotation
                                JOINT LeftFinger31
                                {
                                    OFFSET   4.646930   0.000000   0.000000
                                    CHANNELS 3 Zrotation Xrotation Yrotation
                                    JOINT LeftFinger32
                                    {
                                        OFFSET   2.323470   0.000000   0.000000
                                        CHANNELS 3 Zrotation Xrotation Yrotation
                                        End Site
                                        {
                                            OFFSET   2.273050   0.000000   0.000000
                                        }
                                    }
                                }
                            }
                            JOINT LeftFinger4
                            {
                                OFFSET   7.435080   0.000000  -3.252850
                                CHANNELS 3 Zrotation Xrotation Yrotation
                                JOINT LeftFinger41
                                {
                                    OFFSET   3.717550   0.000000   0.000000
                                    CHANNELS 3 Zrotation Xrotation Yrotation
                                    JOINT LeftFinger42
                                    {
                                        OFFSET   1.858760   0.000000   0.000000
                                        CHANNELS 3 Zrotation Xrotation Yrotation
                                        End Site
                                        {
                                            OFFSET   1.818440   0.000000   0.000000
                                        }
                                    }
                                }
                            }
                        }
                    }
                }
            }
            JOINT RightCollar
            {
                OFFSET  -3.911900  19.017000  -0.467064
                CHANNELS 3 Zrotation Xrotation Yrotation
                JOINT RightShoulder
                {
                    OFFSET -10.383700   0.000000   0.000000
                    CHANNELS 3 Zrotation Xrotation Yrotation
                    JOINT RightElbow
                    {
                        OFFSET -26.662100   0.001633   0.000260
                        CHANNELS 3 Zrotation Xrotation Yrotation
                        JOINT RightWrist
                        {
                            OFFSET -28.869000  -0.000045  -0.000080
                            CHANNELS 3 Zrotation Xrotation Yrotation
                            JOINT RightFinger0
                            {
                                OFFSET  -2.044660  -2.323490   3.252850
                                CHANNELS 3 Zrotation Xrotation Yrotation
                                JOINT RightFinger01
                                {
                                    OFFSET  -3.088140   0.000000   0.000000
                                    CHANNELS 3 Zrotation Xrotation Yrotation
                                    JOINT RightFinger02
                                    {
                                        OFFSET  -2.639450   0.000000   0.000000
                                        CHANNELS 3 Zrotation Xrotation Yrotation
                                        End Site
                                        {
                                            OFFSET  -2.582190   0.000000   0.000000
                                        }
                                    }
                                }
                            }
                            JOINT RightFinger1
                            {
                                OFFSET  -8.364480   0.000000   3.252850
                                CHANNELS 3 Zrotation Xrotation Yrotation
                                JOINT RightFinger11
                                {
                                    OFFSET  -4.646920   0.000000   0.000000
                                    CHANNELS 3 Zrotation Xrotation Yrotation
                                    JOINT RightFinger12
                                    {
                                        OFFSET  -2.323470   0.000000   0.000000
                                        CHANNELS 3 Zrotation Xrotation Yrotation
                                        End Site
                                        {
                                            OFFSET  -2.273050   0.000000   0.000000
                                        }
                                    }
                                }
                            }
                            JOINT RightFinger2
                            {
                                OFFSET  -8.364480   0.000000   1.078090
                                CHANNELS 3 Zrotation Xrotation Yrotation
                                JOINT RightFinger21
                                {
                                    OFFSET  -5.111610   0.000000   0.000000
                                    CHANNELS 3 Zrotation Xrotation Yrotation
                                    JOINT RightFinger22
                                    {
                                        OFFSET  -2.788160   0.000000   0.000000
                                        CHANNELS 3 Zrotation Xrotation Yrotation
                                        End Site
                                        {
                                            OFFSET  -2.727660   0.000000   0.000000
                                        }
                                    }
                                }
                            }
                            JOINT RightFinger3
                            {
                                OFFSET  -7.899780   0.000000  -1.078090
                                CHANNELS 3 Zrotation Xrotation Yrotation
                                JOINT RightFinger31
                                {
                                    OFFSET  -4.646930   0.000000   0.000000
                                    CHANNELS 3 Zrotation Xrotation Yrotation
                                    JOINT RightFinger32
                                    {
                                        OFFSET  -2.323470   0.000000   0.000000
                                        CHANNELS 3 Zrotation Xrotation Yrotation
                                        End Site
                                        {
                                            OFFSET  -2.273050   0.000000   0.000000
                                        }
                                    }
                                }
                            }
                            JOINT RightFinger4
                            {
                                OFFSET  -7.435090   0.000000  -3.252850
                                CHANNELS 3 Zrotation Xrotation Yrotation
                                JOINT RightFinger41
                                {
                                    OFFSET  -3.717550   0.000000   0.000000
                                    CHANNELS 3 Zrotation Xrotation Yrotation
                                    JOINT RightFinger42
                                    {
                                        OFFSET  -1.858760   0.000000   0.000000
                                        CHANNELS 3 Zrotation Xrotation Yrotation
                                        End Site
                                        {
                                            OFFSET  -1.818440   0.000000   0.000000
                                        }
                                    }
                                }
                            }
                        }
                    }
                }
            }
        }
    }
    JOINT LeftHip
    {
        OFFSET   9.782990   0.000000   0.000000
        CHANNELS 3 Zrotation Xrotation Yrotation
        JOINT LeftKnee
        {
            OFFSET  -0.000063 -41.789100   0.001657
            CHANNELS 3 Zrotation Xrotation Yrotation
            JOINT LeftAnkle
            {
                OFFSET   0.000078 -41.133200  -0.000113
                CHANNELS 3 Zrotation Xrotation Yrotation
                JOINT LeftToe
                {
                    OFFSET   0.000000  -6.358970  14.674500
                    CHANNELS 3 Zrotation Xrotation Yrotation
                    End Site
                    {
                        OFFSET   0.000000   0.000000   3.913200
                    }
                }
            }
        }
    }
    JOINT RightHip
    {
        OFFSET  -9.782990   0.000000   0.000000
        CHANNELS 3 Zrotation Xrotation Yrotation
        JOINT RightKnee
        {
            OFFSET   0.000053 -41.789200   0.000277
            CHANNELS 3 Zrotation Xrotation Yrotation
            JOINT RightAnkle
            {
                OFFSET   0.000030 -41.133200  -0.000150
                CHANNELS 3 Zrotation Xrotation Yrotation
                JOINT RightToe
                {
                    OFFSET   0.000000  -6.358960  14.674500
                    CHANNELS 3 Zrotation Xrotation Yrotation
                    End Site
                    {
                        OFFSET   0.000000   0.000000   3.913200
                    }
                }
            }
        }
    }
}
MOTION
Frames: 4
Frame Time:   0.016667
 -1.493120  89.519400  -0.306245  -4.546640 -11.445600  -8.519010   0.466517   7.382580   2.112750   0.663975  14.777300   4.217630   0.804309  -1.270320   0.015059   1.327720  -2.574350   1.183150  -5.893270  -1.777590   2.984950 -71.218400  19.253500  -6.847890  -0.474257   0.195174 -18.000900  11.314000  -4.066020   4.020380  41.971500  38.444800 -69.827800 -32.155500   0.000000   0.000064 -11.071500   0.001570  -0.000000 -30.718000   5.484150  -9.137400 -25.491700   0.008202   0.000830 -17.844200   0.011871   0.000464 -28.180800  -1.852900   3.453640 -33.694100   0.009813   0.002769 -22.440300  -0.004581  -0.000824 -27.825500  -1.831030   3.465280 -31.216500  -0.005131   0.003595 -20.790100   0.000566   0.000216 -28.877200  -1.894760   3.430870 -43.400900  -0.005240   0.000183 -28.905000  -0.000311  -0.009953  11.057100  -0.190061   9.581240  66.944100   4.634240  -4.436650  -4.474530  -6.676050  17.106600  -8.134740  -5.584730   3.336250 -40.979500  35.077200  65.502100  30.640600  -0.004621   0.002788  10.331900  -0.004160   0.003906  37.341300  10.093700  12.937300  31.483100   0.000938   0.007168  22.038100  -0.000731   0.008202  34.975500   4.749980   6.744760  52.882900   0.002221  -0.001955  35.220000  -0.004130   0.001006  29.813600   1.563680   2.728290  44.775800   0.002103  -0.001306  29.819900   0.003175  -0.003372  38.195000  -0.570944  -0.723060  57.298000   0.007050  -0.001390  38.160500   0.001458   0.000927   4.033020  14.798400   6.883720   1.440140   0.053610   6.152250  -2.501310  -3.369730   1.099600  -0.000000   0.000000  -0.000000   4.300640  12.108100   2.382950  -0.439860   3.197630  -7.563050  -0.689112  -4.130880   0.952350   0.000000   0.000000   0.000000
 -1.478150  89.519400  -0.303368  -4.548800 -11.460200  -8.519130   0.467132   7.389710   2.112500   0.664995  14.791600   4.216970   0.808495  -1.259620   0.015075   1.332610  -2.552520   1.150950  -5.893270  -1.777540   2.984740 -71.208500  19.262900  -6.853400  -0.474537   0.195146 -18.007000  11.319500  -4.068000   4.009630  41.980800  38.437600 -69.812400 -32.154700   0.000000   0.000073 -11.073200   0.001562   0.000000 -30.711000   5.476000  -9.128890 -25.485200   0.008204   0.000835 -17.839700   0.011871   0.000465 -28.179900  -1.858420   3.464250 -33.679800   0.009811   0.002764 -22.430800  -0.004582  -0.000822 -27.824700  -1.836550   3.475900 -31.212200  -0.005132   0.003596 -20.787200   0.000565   0.000220 -28.876700  -1.900460   3.441380 -43.401000  -0.005239   0.000181 -28.905100  -0.000312  -0.009951  11.057100  -0.190024   9.581150  66.944700   4.642360  -4.436410  -4.473810  -6.679480  17.106700  -8.135960  -5.585400   3.323370 -40.968600  35.065300  65.490900  30.644700  -0.004626   0.002822  10.331800  -0.004159   0.003917  37.344900  10.088300  12.929800  31.488200   0.000934   0.007168  22.041800  -0.000729   0.008201  34.975800   4.749990   6.744770  52.883300   0.002221  -0.001954  35.220200  -0.004128   0.001008  29.813700   1.562150   2.725070  44.776200   0.002103  -0.001307  29.819900   0.003175  -0.003369  38.195000  -0.570960  -0.723022  57.298000   0.007046  -0.001391  38.160500   0.001460   0.000923   4.032490  14.805600   6.883590   1.433340   0.068755   6.151660  -2.494200  -3.388920   1.099070   0.000000   0.000000  -0.000000   4.293290  12.125900   2.383080  -0.435122   3.195420  -7.578250  -0.681434  -4.130840   0.960594  -0.000000   0.000000   0.000000
 -1.453310  89.519500  -0.297983  -4.552580 -11.485300  -8.519570   0.468372   7.401290   2.112280   0.667088  14.814800   4.216490   0.815435  -1.238720   0.015101   1.341450  -2.510080   1.092080  -5.893280  -1.777490   2.984530 -71.195900  19.276100  -6.866080  -0.474799   0.195112 -18.018500  11.331100  -4.076240   3.998900  41.990000  38.430500 -69.797000 -32.153900   0.000000   0.000082 -11.077000   0.001550  -0.000000 -30.704500   5.467910  -9.115690 -25.478800   0.008208   0.000846 -17.835200   0.011871   0.000470 -28.178600  -1.866760   3.480040 -33.665600   0.009809   0.002760 -22.421300  -0.004583  -0.000817 -27.823600  -1.844850   3.491700 -31.207900  -0.005133   0.003596 -20.784400   0.000557   0.000227 -28.877000  -1.909210   3.456950 -43.402000  -0.005238   0.000180 -28.905700  -0.000314  -0.009948  11.057100  -0.189988   9.581070  66.945700   4.657670  -4.436230  -4.472120  -6.686060  17.106900  -8.137990  -5.586120   3.302260 -40.959000  35.051000  65.482100  30.652400  -0.004631   0.002855  10.331700  -0.004157   0.003928  37.351200  10.083000  12.919700  31.496500   0.000930   0.007169  22.047500  -0.000724   0.008199  34.976000   4.750010   6.744810  52.883600   0.002220  -0.001950  35.220500  -0.004127   0.001011  29.814100   1.558900   2.718660  44.776600   0.002101  -0.001309  29.819900   0.003174  -0.003363  38.195000  -0.570998  -0.722984  57.298000   0.007037  -0.001394  38.160500   0.001463   0.000915   4.029880  14.830900   6.884030   1.420310   0.083899   6.151070  -2.481010  -3.408110   1.098530   0.000000   0.000000   0.000000   4.278510  12.157600   2.383200  -0.427399   3.189820  -7.593420  -0.668252  -4.130660   0.969617  -0.000000   0.000000  -0.000000
 -1.433780  89.519500  -0.292359  -4.558430 -11.507500  -8.522030   0.469708   7.410020   2.112870   0.669385  14.832300   4.217660   0.821223  -1.216020   0.015118   1.350580  -2.464520   1.036660  -5.889870  -1.777510   2.984580 -71.189400  19.281000  -6.884250  -0.471524   0.199545 -18.031600  11.349300  -4.095030   3.999220  41.977000  38.426300 -69.807800 -32.162600   0.000000   0.000074 -11.082400   0.001544  -0.000000 -30.723700   5.468180  -9.106950 -25.494100   0.008211   0.000860 -17.845900   0.011870   0.000481 -28.180300  -1.871600   3.488700 -33.687400   0.009811   0.002762 -22.435800  -0.004585  -0.000811 -27.823000  -1.849640   3.500380 -31.224300  -0.005135   0.003597 -20.795300   0.000537   0.000232 -28.887800  -1.914750   3.465240 -43.418400  -0.005243   0.000180 -28.916900  -0.000316  -0.009947  11.060300  -0.190838   9.581090  66.946800   4.674710  -4.436400  -4.468260  -6.695480  17.101300  -8.138900  -5.584220   3.285760 -40.951800  35.050700  65.497000  30.662600  -0.004616   0.002840  10.332600  -0.004157   0.003923  37.359600  10.083600  12.916300  31.503700   0.000934   0.007175  22.051800  -0.000716   0.008196  34.974600   4.750040   6.744860  52.881500   0.002214  -0.001944  35.219100  -0.004127   0.001015  29.814600   1.553550   2.709080  44.774200   0.002097  -0.001305  29.820000   0.003173  -0.003355  38.198600  -0.571054  -0.722993  57.303400   0.007023  -0.001396  38.164100   0.001469   0.000907   4.022120  14.894700   6.886230   1.409650   0.023367   6.152100  -2.466760  -3.384620   1.098720  -0.000000   0.000000   0.000000   4.262010  12.188000   2.377670  -0.421581   3.181190  -7.585270  -0.656065  -4.129190   0.970136  -0.000000   0.000000   0.000000
